<svg xmlns="http://www.w3.org/2000/svg" viewBox="0 0 450 450"><path d="M25 0h25v25h-25ZM50 0h25v25h-25ZM75 0h25v25h-25ZM100 0h25v25h-25ZM125 0h25v25h-25ZM150 0h25v25h-25ZM175 0h25v25h-25ZM200 0h25v25h-25ZM225 0h25v25h-25ZM250 0h25v25h-25ZM275 0h25v25h-25ZM300 0h25v25h-25ZM325 0h25v25h-25ZM350 0h25v25h-25ZM375 0h25v25h-25ZM400 0h25v25h-25ZM0 25h25v25h-25ZM425 25h25v25h-25ZM0 50h25v25h-25ZM75 50h25v25h-25ZM100 50h25v25h-25ZM125 50h25v25h-25ZM150 50h25v25h-25ZM175 50h25v25h-25ZM200 50h25v25h-25ZM225 50h25v25h-25ZM250 50h25v25h-25ZM275 50h25v25h-25ZM300 50h25v25h-25ZM325 50h25v25h-25ZM350 50h25v25h-25ZM425 50h25v25h-25ZM0 75h25v25h-25ZM75 75h25v25h-25ZM350 75h25v25h-25ZM425 75h25v25h-25ZM0 100h25v25h-25ZM75 100h25v25h-25ZM350 100h25v25h-25ZM425 100h25v25h-25ZM0 125h25v25h-25ZM75 125h25v25h-25ZM350 125h25v25h-25ZM425 125h25v25h-25ZM0 150h25v25h-25ZM75 150h25v25h-25ZM350 150h25v25h-25ZM425 150h25v25h-25ZM0 175h25v25h-25ZM75 175h25v25h-25ZM350 175h25v25h-25ZM425 175h25v25h-25ZM0 200h25v25h-25ZM75 200h25v25h-25ZM350 200h25v25h-25ZM425 200h25v25h-25ZM0 225h25v25h-25ZM75 225h25v25h-25ZM350 225h25v25h-25ZM425 225h25v25h-25ZM0 250h25v25h-25ZM75 250h25v25h-25ZM100 250h25v25h-25ZM125 250h25v25h-25ZM150 250h25v25h-25ZM175 250h25v25h-25ZM200 250h25v25h-25ZM225 250h25v25h-25ZM250 250h25v25h-25ZM275 250h25v25h-25ZM300 250h25v25h-25ZM325 250h25v25h-25ZM350 250h25v25h-25ZM425 250h25v25h-25ZM0 275h25v25h-25ZM425 275h25v25h-25ZM0 300h25v25h-25ZM75 300h25v25h-25ZM250 300h25v25h-25ZM275 300h25v25h-25ZM300 300h25v25h-25ZM325 300h25v25h-25ZM350 300h25v25h-25ZM425 300h25v25h-25ZM0 325h25v25h-25ZM425 325h25v25h-25ZM0 350h25v25h-25ZM425 350h25v25h-25ZM0 375h25v25h-25ZM425 375h25v25h-25ZM25 400h25v25h-25ZM50 400h25v25h-25ZM75 400h25v25h-25ZM100 400h25v25h-25ZM125 400h25v25h-25ZM150 400h25v25h-25ZM175 400h25v25h-25ZM200 400h25v25h-25ZM225 400h25v25h-25ZM250 400h25v25h-25ZM275 400h25v25h-25ZM300 400h25v25h-25ZM325 400h25v25h-25ZM350 400h25v25h-25ZM375 400h25v25h-25ZM400 400h25v25h-25ZM50 425h25v25h-25ZM75 425h25v25h-25ZM100 425h25v25h-25ZM125 425h25v25h-25ZM150 425h25v25h-25ZM175 425h25v25h-25ZM200 425h25v25h-25ZM225 425h25v25h-25ZM250 425h25v25h-25ZM275 425h25v25h-25ZM300 425h25v25h-25ZM325 425h25v25h-25ZM350 425h25v25h-25ZM375 425h25v25h-25Z" fill="#0000FF"></path></svg>