<svg xmlns="http://www.w3.org/2000/svg" viewBox="0 0 240 200" fill="none">
  <rect width="240" height="200" fill="#F5EFE2"/>
  <g stroke="#0F1417" stroke-width="1.2" stroke-linecap="round" stroke-linejoin="round">
    <!-- Frame -->
    <rect x="8" y="8" width="224" height="184" stroke-width="0.6" stroke-dasharray="2 3" opacity="0.5"/>
    <!-- Source query (left) -->
    <circle cx="32" cy="100" r="10" fill="#F5EFE2"/>
    <text x="32" y="128" text-anchor="middle" font-family="JetBrains Mono, monospace" font-size="7" fill="#4A5159" stroke="none" letter-spacing="0.05em">QUERY</text>
    <!-- Router gateway -->
    <path d="M68 100 L94 100" stroke-width="1.4"/>
    <path d="M88 96 L94 100 L88 104"/>
    <rect x="96" y="84" width="48" height="32" rx="3"/>
    <text x="120" y="98" text-anchor="middle" font-family="JetBrains Mono, monospace" font-size="6" fill="#0F1417" stroke="none" letter-spacing="0.06em">ROUTER</text>
    <path d="M104 106 H136 M104 110 H132" stroke-width="0.5" opacity="0.55"/>
    <!-- Three model branches (right) -->
    <path d="M144 92 Q176 60 200 56" stroke-width="1.2"/>
    <path d="M144 100 Q176 100 200 100" stroke-width="1.2"/>
    <path d="M144 108 Q176 140 200 144" stroke-width="1.2"/>
    <!-- Model nodes (small / medium / large) -->
    <circle cx="208" cy="56" r="6" fill="#F5EFE2"/>
    <circle cx="210" cy="100" r="9" fill="#0E5347" stroke="#0E5347"/>
    <circle cx="210" cy="144" r="12" fill="#F5EFE2"/>
    <text x="222" y="58" font-family="JetBrains Mono, monospace" font-size="6" fill="#4A5159" stroke="none">S</text>
    <text x="224" y="103" font-family="JetBrains Mono, monospace" font-size="6" fill="#4A5159" stroke="none">M</text>
    <text x="226" y="147" font-family="JetBrains Mono, monospace" font-size="6" fill="#4A5159" stroke="none">L</text>
    <!-- Cost ticks below router -->
    <path d="M96 132 H144" stroke-width="0.5"/>
    <path d="M104 130 V134 M120 130 V134 M136 130 V134" stroke-width="0.5"/>
    <text x="120" y="148" text-anchor="middle" font-family="JetBrains Mono, monospace" font-size="6" fill="#4A5159" stroke="none" letter-spacing="0.06em">$ / TOK</text>
  </g>
</svg>
